<svg width="73" height="72" viewBox="0 0 73 72" fill="none" xmlns="http://www.w3.org/2000/svg">
<g clip-path="url(#clip0_964_17605)">
<path d="M36.5 42C44.4968 42 51 35.721 51 28C51 20.279 44.4968 14 36.5 14C28.5032 14 22 20.279 22 28C22 35.721 28.5032 42 36.5 42ZM36.5 21C40.4984 21 43.75 24.1395 43.75 28C43.75 31.8605 40.4984 35 36.5 35C32.5016 35 29.25 31.8605 29.25 28C29.25 24.1395 32.5016 21 36.5 21Z" fill="white"/>
<path d="M34.4338 69.3403C35.0367 69.7693 35.7591 70 36.5 70C37.2409 70 37.9633 69.7693 38.5662 69.3403C39.6492 68.577 65.103 50.2624 64.9997 27.4002C64.9997 11.7411 52.214 -1 36.5 -1C20.786 -1 8.00031 11.7411 8.00031 27.3825C7.897 50.2624 33.3508 68.577 34.4338 69.3403ZM36.5 6.10006C48.2882 6.10006 57.8748 15.6532 57.8748 27.418C57.9496 43.173 42.2427 57.3199 36.5 61.9598C30.7609 57.3163 15.0504 43.1659 15.1252 27.4002C15.1252 15.6532 24.7118 6.10006 36.5 6.10006Z" fill="white"/>
</g>
<defs>
<clipPath id="clip0_964_17605">
<rect width="72" height="72" fill="white" transform="translate(0.5)"/>
</clipPath>
</defs>
</svg>
